<?xml version="1.0" encoding="UTF-8"?>
<svg id="_Слой_1" data-name="Слой 1" xmlns="http://www.w3.org/2000/svg" viewBox="0 0 24.5 29.41">
  <defs>
    <style>
      .cls-1 {
        fill: #ff9a00;
      }

      .cls-2 {
        fill: #300;
        stroke: #ff9a00;
        stroke-miterlimit: 10;
        stroke-width: .5px;
      }
    </style>
  </defs>
  <g>
    <path class="cls-2" d="M20.27,.25H3.1C.9,.25,.25,2.08,.25,4.34v15.83c0,2.26,1.78,4.09,3.98,4.09H20.27c2.2,0,3.98-1.83,3.98-4.09V4.34c0-2.26-1.78-4.09-3.98-4.09Z"/>
    <path class="cls-1" d="M14.36,8.24c-.16,0-.33-.02-.48-.08-.15-.06-.29-.16-.4-.28-.11-.13-.2-.27-.26-.44-.06-.16-.08-.33-.08-.51,0-.17,.02-.34,.09-.5,.06-.16,.16-.3,.28-.42,.23-.23,.54-.35,.86-.36h.03c.39,0,.69,.12,.91,.36,.11,.12,.2,.27,.25,.42,.06,.16,.08,.32,.08,.49,0,.17-.02,.35-.08,.51-.06,.16-.15,.31-.27,.43-.12,.12-.26,.21-.41,.27-.15,.06-.32,.09-.48,.09h-.03Z"/>
    <path class="cls-1" d="M13.25,17.4v-7.89c0-.1,.04-.15,.13-.15h1.98c.09,0,.13,.05,.13,.15v7.89c0,.11-.04,.17-.13,.17h-1.96c-.09,0-.14-.05-.14-.15v-.02Z"/>
    <path class="cls-1" d="M12.09,6.74v10.82h-2.76v-7.3s-1.1,7.3-1.1,7.3h-1.96l-1.16-7.14v7.14H2.34V6.74H6.43c.12,.65,.25,1.42,.38,2.3l.45,2.75,.73-5.05h4.11Z"/>
    <path class="cls-1" d="M22.16,12.49h-2.42v-.91c0-.32-.03-.53-.08-.65-.06-.11-.16-.17-.3-.17s-.25,.05-.3,.15-.08,.32-.08,.67v3.74c0,.28,.04,.49,.11,.64,.08,.14,.19,.21,.34,.21,.17,0,.29-.07,.35-.22s.09-.43,.09-.84v-.94h2.29c0,.63-.03,1.11-.07,1.42-.04,.32-.19,.64-.43,.97-.24,.33-.55,.58-.94,.75-.39,.17-.86,.25-1.43,.25-.72,0-1.3-.12-1.72-.35-.42-.23-.72-.56-.9-.98-.18-.42-.26-1.02-.26-1.79v-2.25c0-.67,.07-1.18,.22-1.52s.45-.65,.92-.92c.47-.27,1.04-.4,1.71-.4s1.24,.13,1.71,.4c.47,.27,.79,.6,.95,1.01s.23,.98,.23,1.72Z"/>
  </g>
  <g>
    <path class="cls-2" d="M11.93,5.03L2.57,.73C1.29,.14,.25,1.49,.25,3.75v15.83c0,2.26,1.04,4.56,2.32,5.15l9.35,4.3c1.28,.59,2.32-.76,2.32-3.02V10.18c0-2.26-1.04-4.56-2.32-5.15Z"/>
    <path class="cls-1" d="M8.48,11.43c-.1-.04-.19-.11-.28-.21-.09-.1-.17-.24-.24-.39-.07-.16-.12-.33-.15-.51-.03-.18-.05-.36-.05-.53,0-.17,.01-.33,.05-.47,.04-.14,.09-.26,.16-.34,.13-.17,.31-.21,.5-.13h.02c.23,.11,.4,.31,.53,.61,.06,.15,.12,.32,.15,.49,.03,.17,.05,.35,.04,.51,0,.17-.01,.34-.05,.49-.03,.15-.09,.27-.16,.36-.07,.09-.15,.14-.24,.16-.09,.02-.18,0-.28-.04h-.02Z"/>
    <path class="cls-1" d="M7.83,20.29v-7.89c0-.1,.02-.14,.08-.11l1.16,.53c.05,.02,.08,.08,.08,.18v7.89c0,.11-.03,.15-.08,.13l-1.15-.53c-.05-.02-.08-.09-.08-.19v-.02Z"/>
    <path class="cls-1" d="M7.16,9.33v10.82l-1.61-.74v-7.3s-.64,7.01-.64,7.01l-1.14-.52-.68-7.45v7.13s-1.61-.74-1.61-.74V6.72l2.39,1.1c.07,.68,.14,1.48,.22,2.4l.26,2.87,.42-4.86,2.4,1.1Z"/>
    <path class="cls-1" d="M13.03,17.77l-1.41-.65v-.91c0-.32-.02-.54-.05-.67-.03-.13-.09-.21-.18-.25s-.14-.02-.17,.07-.04,.3-.04,.65v3.74c0,.28,.02,.5,.07,.67,.04,.16,.11,.26,.2,.3,.1,.05,.17,0,.21-.13s.05-.4,.05-.81v-.94l1.33,.61c0,.63-.02,1.1-.04,1.4-.03,.3-.11,.59-.25,.86-.14,.27-.32,.44-.55,.5-.23,.07-.5,.02-.83-.13-.42-.19-.76-.46-1-.81-.25-.35-.42-.75-.52-1.22-.1-.47-.15-1.09-.15-1.86v-2.25c0-.67,.04-1.16,.13-1.46s.26-.53,.54-.67c.27-.14,.61-.12,1,.06s.72,.47,1,.86c.28,.39,.46,.81,.55,1.26s.14,1.04,.14,1.79Z"/>
  </g>
</svg>