<?xml version="1.0" encoding="UTF-8"?>
<svg xmlns="http://www.w3.org/2000/svg" xmlns:xlink="http://www.w3.org/1999/xlink" viewBox="0 0 692.5 372.5">
  <defs>
    <style>
      .cls-1 {
        fill: #936037;
      }

      .cls-1, .cls-2, .cls-3, .cls-4, .cls-5, .cls-6, .cls-7, .cls-8, .cls-9, .cls-10 {
        stroke: #1d1d1b;
        stroke-miterlimit: 10;
      }

      .cls-2 {
        fill: #f39200;
      }

      .cls-3 {
        fill: #575756;
      }

      .cls-4 {
        fill: #634e42;
      }

      .cls-5 {
        fill: none;
      }

      .cls-6 {
        fill: #fff;
      }

      .cls-7 {
        fill: #009fe3;
      }

      .cls-8 {
        fill: #be1622;
      }

      .cls-9 {
        fill: #cbbba0;
      }

      .cls-10 {
        fill: #b17f4a;
      }
    </style>
  </defs>
  <g id="Temlate">
    <image width="1385" height="745" transform="scale(.5)" xlink:href="../../../../Users/Михаил/Desktop/illustrator/Exercise Files - Illustrator Beginner - Tuts+ Envato/Redraw Icons.png"/>
  </g>
  <g id="Drawing">
    <g>
      <path class="cls-5" d="M109.21,80.82c-.66,4.63-5.03,8.21-9.83,8.05-5.11-.18-9.53-4.55-9.32-9.83,.2-5.07,4.59-8.95,9.32-9.07,5.7-.13,10.62,5.24,9.83,10.85Z"/>
      <path class="cls-10" d="M127.85,80.31c-1.67-5.04-4.07-8.65-4.97-9.93-1.37-1.96-5.13-6.84-11.5-10.75-7.01-4.29-21.01-9.74-27.07-4.21-4.76,4.35-.45,11.71-7.02,18.64-3.82,4.03-9.13,5.62-9.57,5.74-5.49,1.58-7.87-.25-11.24,1.54-5.1,2.71-6,10.29-6.25,12.38-1.6,13.42,9.2,24.25,10.98,26.04,1.59,1.6,17.32,16.85,38.68,11.49,13.34-3.35,23.21-13.33,27.45-24.64,.59-1.59,4.79-13.31,.51-26.3Zm-18.64,.51c-.66,4.63-5.03,8.21-9.83,8.05-5.11-.18-9.53-4.55-9.32-9.83,.2-5.07,4.59-8.95,9.32-9.07,5.7-.13,10.62,5.24,9.83,10.85Z"/>
      <path class="cls-5" d="M109.21,80.82c-.66,4.63-5.03,8.21-9.83,8.05-5.11-.18-9.53-4.55-9.32-9.83,.2-5.07,4.59-8.95,9.32-9.07,5.7-.13,10.62,5.24,9.83,10.85Z"/>
    </g>
    <path class="cls-3" d="M222.06,55.68h71.36v10.98c-10.04,9.91-20.09,19.83-30.13,29.74,.13,10.98,.26,21.96,.38,32.94-4-3.45-8-6.89-12-10.34-.09-7.7-.17-15.4-.26-23.11-9.57-9.83-19.15-19.66-28.72-29.49-.21-3.57-.43-7.15-.64-10.72Z"/>
    <g>
      <path class="cls-7" d="M455.34,91.59c-3.18-32.98-33.91-51.05-38.13-53.45,4.76,11.48,9.2,27.85,3.23,43.58-7.71,20.3-27.42,25.44-25.79,39.57,1.16,9.98,12.27,18.49,22.39,21.19,2.03,.55,9.97,2.64,17.87-.51,16.91-6.74,22.06-33.38,20.43-50.38Zm-22.64,46.13c-6.8,2.54-13.58-2.95-16.51-6.81-5.37-7.05-3.32-15.8-2.56-19.06,1.73-7.4,6.02-12.19,8.17-14.3-.16,5.64,.68,12.59,5.28,17.7,5.33,5.93,12.17,5.45,13.45,10.38,1.13,4.37-2.81,10.21-7.83,12.09Z"/>
      <path class="cls-6" d="M432.7,137.72c-6.8,2.54-13.58-2.95-16.51-6.81-5.37-7.05-3.32-15.8-2.56-19.06,1.73-7.4,6.02-12.19,8.17-14.3-.16,5.64,.68,12.59,5.28,17.7,5.33,5.93,12.17,5.45,13.45,10.38,1.13,4.37-2.81,10.21-7.83,12.09Z"/>
    </g>
    <g>
      <path class="cls-4" d="M610.06,70.99c-.19,4.79-2.42,9.07-5.8,12.07-2.96,2.64-6.79,4.3-10.88,4.45-4.55,.16-8.87-1.55-12.15-4.44-3.69-3.25-6.05-8.01-5.89-13.27,.27-9.26,8.25-16.77,17.53-16.68,9.6,.1,17.55,8.32,17.19,17.87Z"/>
      <path class="cls-1" d="M628.27,102.31c-.11,6.7-.23,13.39-.34,20.09-1.11,0-2.22,.01-3.33,.01-21.2,.05-42.4,.1-63.61,.15-1.29,0-2.58,.01-3.87,.01-.22-6.36-.45-12.71-.68-19.06-.01-.33-.06-2.36,1.53-3.92,1.87-1.83,4.37-1.41,4.6-1.36,6.24-.11,12.48-.23,18.72-.34-.11-4.94-.22-9.87-.34-14.81,.09,0,.19,0,.28,0,3.28,2.89,7.6,4.6,12.15,4.44,4.09-.15,7.92-1.81,10.88-4.45-.05,5-.1,10-.16,15,6.41,.17,12.82,.34,19.24,.51,.63,.12,1.97,.45,3.23,1.53,.93,.79,1.44,1.67,1.7,2.21Z"/>
      <path class="cls-2" d="M624.7,127.68c-.01,.36-.07,1.8-1.19,3.06-1.12,1.25-2.54,1.48-2.9,1.53h-54.81c-.54-.05-1.94-.27-3.23-1.36-1.03-.87-1.5-1.87-1.7-2.38,.04-1.99,.08-3.98,.12-5.97,21.21-.05,42.41-.1,63.61-.15,.03,1.76,.06,3.51,.1,5.27Z"/>
    </g>
    <g>
      <path class="cls-8" d="M268.27,236.74c-.11,.06-.22,.12-.33,.18-4.84,2.55-9.76,5.16-14.68,7.76-5.03,2.66-10.07,5.33-15.01,7.94-.02,.01-.04,.02-.06,.03-5.84-8.91-2.97-20.47,4.72-25.14,8.26-5.03,20.86-1.37,25.36,9.23Z"/>
      <path class="cls-10" d="M292.53,286.49c-9.55,4.83-19.1,9.67-28.65,14.51-8.54-16.12-17.08-32.26-25.63-48.38,4.94-2.61,9.98-5.28,15.01-7.94,4.92-2.6,9.84-5.21,14.68-7.76,.11-.06,.22-.12,.33-.18,8.19,16.53,16.07,33.23,24.26,49.75Z"/>
      <path class="cls-9" d="M292.78,286.36c-.01,.18-.03,.36-.04,.54-.01,.04-.01,.08-.01,.12-.79,10.16-1.59,20.32-2.37,30.49-8.58-5.19-17.15-10.37-25.73-15.55-.12-.07-.24-.14-.36-.21-.28-.18-.57-.35-.85-.52,.15-.08,.31-.16,.46-.23,9.55-4.84,19.1-9.68,28.65-14.51,.08-.05,.17-.09,.25-.13Z"/>
    </g>
    <g>
      <path class="cls-5" d="M460.53,239.25c-.12,1.77-1.83,3.12-3.58,3.19-1.74,.07-3.57-1.12-3.83-2.93-.28-1.99,1.47-3.83,3.45-3.96,2.1-.14,4.1,1.66,3.96,3.7Z"/>
      <path class="cls-4" d="M469.46,226.61c-3.94-4-18.47,3.96-25.78,9.07-11.2,7.81-17.72,17.47-21.32,24-2.6-2.43-5.2-4.86-7.79-7.28-.59-.09-1.43-.15-2.43,0-.91,.14-1.65,.4-2.17,.64-1.57,1.7-3.15,3.4-4.72,5.1,10.77,10.98,21.53,21.96,32.3,32.94,1.87-1.45,3.74-2.89,5.61-4.34,.26-.49,.8-1.71,.64-3.32-.13-1.38-.71-2.35-1.02-2.81-2.08-2.34-4.17-4.68-6.25-7.02,6.18-3.59,15.2-9.92,22.85-20.43,5.4-7.41,14.13-22.44,10.08-26.55Zm-12.51,15.83c-1.74,.07-3.57-1.12-3.83-2.93-.28-1.99,1.47-3.83,3.45-3.96,2.1-.14,4.1,1.66,3.96,3.7-.12,1.77-1.83,3.12-3.58,3.19Z"/>
      <path class="cls-5" d="M460.53,239.25c-.12,1.77-1.83,3.12-3.58,3.19-1.74,.07-3.57-1.12-3.83-2.93-.28-1.99,1.47-3.83,3.45-3.96,2.1-.14,4.1,1.66,3.96,3.7Z"/>
      <path class="cls-10" d="M420.7,309.59c-.51,.7-6.6,9.15-6.13,12.38,.03,.18,.15,.9-.26,1.41-.71,.89-2.55,.51-3.19,.38-4.93-1.01-18.93-15.98-21.83-19.02,0,0-14.13-14.82-16.31-21.98-.12-.4-.48-1.6,.1-2.53,.74-1.19,2.6-1.24,3.19-1.28,1.63-.1,4.58-1.64,10.47-4.72,2.84-1.49,7.38-4.33,12.64-9.83,10.68,10.85,21.36,21.7,32.04,32.55-4.76,4.86-8.27,9.26-10.72,12.64Z"/>
    </g>
  </g>
</svg>