<?xml version="1.0" encoding="UTF-8"?>
<svg id="Layer_1" data-name="Layer 1" xmlns="http://www.w3.org/2000/svg" viewBox="0 0 247.76 264.59">
  <defs>
    <style>
      .cls-1, .cls-2 {
        stroke-width: 1.08px;
      }

      .cls-1, .cls-2, .cls-3, .cls-4, .cls-5 {
        stroke: #1d1d1b;
        stroke-miterlimit: 10;
      }

      .cls-1, .cls-3 {
        fill: #ca9e67;
      }

      .cls-2, .cls-4 {
        fill: #be1622;
      }

      .cls-3, .cls-4 {
        stroke-width: .94px;
      }

      .cls-5 {
        fill: #b17f4a;
        stroke-width: .79px;
      }
    </style>
  </defs>
  <path class="cls-5" d="M137.93,94.92C132.15,62.82,119.05,31.49,98.52,.94l-7.32,27.47c19.79,12.19,34.46,36.51,46.73,66.51Z"/>
  <g>
    <path class="cls-4" d="M244.74,138.93c-9.17-35.84-42.02-62.36-81.15-62.36-46.23,0-83.7,37.02-83.7,82.69,0,12.18,2.67,23.74,7.45,34.16,47.3-44.7,98.79-67.83,157.4-54.49Z"/>
    <path class="cls-3" d="M244.74,138.93c-58.6-13.34-110.1,9.79-157.4,54.49,13.16,28.63,42.35,48.54,76.25,48.54,46.23,0,83.7-37.02,83.7-82.69,0-7.02-.89-13.83-2.55-20.33Z"/>
  </g>
  <path class="cls-2" d="M188.41,144.64c-10.63-41.12-47.98-71.49-92.42-71.49C43.28,73.15,.54,115.89,.54,168.6c0,14.08,3.05,27.44,8.52,39.47,50.35-45,110.44-65.36,179.35-63.43Z"/>
  <path class="cls-1" d="M9.06,208.08c15.02,33.02,48.29,55.98,86.93,55.98,52.72,0,95.45-42.73,95.45-95.45,0-8.27-1.05-16.3-3.03-23.96-68.9-1.93-128.99,18.43-179.35,63.43Z"/>
</svg>