<?xml version="1.0" encoding="UTF-8"?>
<!DOCTYPE svg PUBLIC "-//W3C//DTD SVG 1.1//EN" "http://www.w3.org/Graphics/SVG/1.1/DTD/svg11.dtd">
<!-- Creator: CorelDRAW -->
<svg xmlns="http://www.w3.org/2000/svg" xml:space="preserve" width="350mm" height="350mm" version="1.1" style="shape-rendering:geometricPrecision; text-rendering:geometricPrecision; image-rendering:optimizeQuality; fill-rule:evenodd; clip-rule:evenodd"
viewBox="0 0 35000 35000"
 xmlns:xlink="http://www.w3.org/1999/xlink"
 xmlns:xodm="http://www.corel.com/coreldraw/odm/2003">
 <defs>
  <style type="text/css">
   <![CDATA[
    .str0 {stroke:#2B2A29;stroke-width:20;stroke-miterlimit:22.9256}
    .fil1 {fill:none}
    .fil2 {fill:#FEFEFE}
    .fil0 {fill:#2B2A29}
   ]]>
  </style>
   <clipPath id="id0">
    <path d="M17499.4 11239.53c3457.89,0 6261.07,2803.18 6261.07,6261.07 0,3457.89 -2803.18,6261.07 -6261.07,6261.07 -3457.89,0 -6261.07,-2803.18 -6261.07,-6261.07 0,-3457.89 2803.18,-6261.07 6261.07,-6261.07z"/>
   </clipPath>
   <clipPath id="id1">
    <path d="M17499.4 11239.53c3457.89,0 6261.07,2803.18 6261.07,6261.07 0,3457.89 -2803.18,6261.07 -6261.07,6261.07 -3457.89,0 -6261.07,-2803.18 -6261.07,-6261.07 0,-3457.89 2803.18,-6261.07 6261.07,-6261.07z"/>
   </clipPath>
    <clipPath id="id2">
     <path d="M17501.86 23761.64c-3458.66,-0.02 -6259.09,-2796.8 -6263.51,-6262.96 0,-16.56 0.49,-33.01 0.63,-49.54 6.71,-793.55 160.22,-1551.73 435.32,-2248.44 1.79,-4.52 3.72,-8.97 5.52,-13.49 16.82,-42.31 33.97,-84.46 51.68,-126.31 9.91,-23.4 20.34,-46.53 30.52,-69.78 10.06,-22.97 19.87,-46.07 30.2,-68.9 19.28,-42.61 39.1,-84.91 59.29,-127 1.47,-3.06 2.85,-6.18 4.32,-9.24 615.34,-1277.07 1651.48,-2313.21 2928.48,-2928.71l0.68 -0.34c32.31,-15.57 64.96,-30.54 97.58,-45.57 13.93,-6.41 27.7,-13.1 41.69,-19.41 21.17,-9.57 42.62,-18.63 63.91,-27.96 25.53,-11.19 50.94,-22.6 76.65,-33.46 10.09,-4.26 20.34,-8.22 30.46,-12.44 740.81,-308.2 1553.62,-478.52 2406.58,-478.53 3456.76,1.33 6258.61,2803.97 6258.61,6261.04 0,3457.07 -2801.85,6259.71 -6258.61,6261.04z"/>
    </clipPath>
    <clipPath id="id3">
     <path d="M17499.4 11239.53c3457.89,0 6261.07,2803.18 6261.07,6261.07 0,3457.89 -2803.18,6261.07 -6261.07,6261.07 -3457.89,0 -6261.07,-2803.18 -6261.07,-6261.07 0,-3457.89 2803.18,-6261.07 6261.07,-6261.07z"/>
    </clipPath>
 </defs>
 <g id="Layer_x0020_1">
  <metadata id="CorelCorpID_0Corel-Layer"/>
  <g>
  </g>
  <g style="clip-path:url(#id0)">
   <g id="_1400366105952">
    <g>
     <polygon class="fil0 str0" points="12085.59,8677.74 12835.59,9110.75 13585.59,9543.76 13585.59,10409.79 13585.59,11275.81 12835.59,11708.83 12085.59,12141.84 11335.59,11708.83 10585.59,11275.81 10585.59,10409.79 10585.59,9543.76 11335.59,9110.75 "/>
     <polygon class="fil0 str0" points="12085.59,13875.39 12835.59,14308.4 13585.59,14741.41 13585.59,15607.44 13585.59,16473.46 12835.59,16906.48 12085.59,17339.49 11335.59,16906.48 10585.59,16473.46 10585.59,15607.44 10585.59,14741.41 11335.59,14308.4 "/>
     <polygon class="fil0 str0" points="9085.59,19073.04 9835.59,19506.05 10585.59,19939.06 10585.59,20805.09 10585.59,21671.11 9835.59,22104.13 9085.59,22537.14 8335.59,22104.13 7585.59,21671.11 7585.59,20805.09 7585.59,19939.06 8335.59,19506.05 "/>
     <polygon class="fil1 str0" points="10585.59,11282.9 11335.59,11715.91 12085.59,12148.92 12085.59,13014.95 12085.59,13880.97 11335.59,14313.99 10585.59,14747 9835.59,14313.99 9085.59,13880.97 9085.59,13014.95 9085.59,12148.92 9835.59,11715.91 "/>
     <polygon class="fil1 str0" points="10585.59,16480.55 11335.59,16913.56 12085.59,17346.57 12085.59,18212.6 12085.59,19078.62 11335.59,19511.64 10585.59,19944.65 9835.59,19511.64 9085.59,19078.62 9085.59,18212.6 9085.59,17346.57 9835.59,16913.56 "/>
     <polygon class="fil1 str0" points="7585.59,21678.2 8335.59,22111.21 9085.59,22544.22 9085.59,23410.25 9085.59,24276.27 8335.59,24709.29 7585.59,25142.3 6835.59,24709.29 6085.59,24276.27 6085.59,23410.25 6085.59,22544.22 6835.59,22111.21 "/>
     <polygon class="fil0 str0" points="18085.59,8677.74 18835.59,9110.75 19585.59,9543.76 19585.59,10409.79 19585.59,11275.81 18835.59,11708.83 18085.59,12141.84 17335.59,11708.83 16585.59,11275.81 16585.59,10409.79 16585.59,9543.76 17335.59,9110.75 "/>
     <polygon class="fil0 str0" points="18085.59,13875.39 18835.59,14308.4 19585.59,14741.41 19585.59,15607.44 19585.59,16473.46 18835.59,16906.48 18085.59,17339.49 17335.59,16906.48 16585.59,16473.46 16585.59,15607.44 16585.59,14741.41 17335.59,14308.4 "/>
     <polygon class="fil0 str0" points="15085.59,19073.04 15835.59,19506.05 16585.59,19939.06 16585.59,20805.09 16585.59,21671.11 15835.59,22104.13 15085.59,22537.14 14335.59,22104.13 13585.59,21671.11 13585.59,20805.09 13585.59,19939.06 14335.59,19506.05 "/>
     <polygon class="fil1 str0" points="16585.59,11282.9 17335.59,11715.91 18085.59,12148.92 18085.59,13014.95 18085.59,13880.97 17335.59,14313.99 16585.59,14747 15835.59,14313.99 15085.59,13880.97 15085.59,13014.95 15085.59,12148.92 15835.59,11715.91 "/>
     <polygon class="fil1 str0" points="16585.59,16480.55 17335.59,16913.56 18085.59,17346.57 18085.59,18212.6 18085.59,19078.62 17335.59,19511.64 16585.59,19944.65 15835.59,19511.64 15085.59,19078.62 15085.59,18212.6 15085.59,17346.57 15835.59,16913.56 "/>
     <polygon class="fil1 str0" points="13585.59,21678.2 14335.59,22111.21 15085.59,22544.22 15085.59,23410.25 15085.59,24276.27 14335.59,24709.29 13585.59,25142.3 12835.59,24709.29 12085.59,24276.27 12085.59,23410.25 12085.59,22544.22 12835.59,22111.21 "/>
     <polygon class="fil0 str0" points="24085.59,8677.74 24835.59,9110.75 25585.59,9543.76 25585.59,10409.79 25585.59,11275.81 24835.59,11708.83 24085.59,12141.84 23335.59,11708.83 22585.59,11275.81 22585.59,10409.79 22585.59,9543.76 23335.59,9110.75 "/>
     <polygon class="fil0 str0" points="24085.59,13875.39 24835.59,14308.4 25585.59,14741.41 25585.59,15607.44 25585.59,16473.46 24835.59,16906.48 24085.59,17339.49 23335.59,16906.48 22585.59,16473.46 22585.59,15607.44 22585.59,14741.41 23335.59,14308.4 "/>
     <polygon class="fil0 str0" points="21085.59,19073.04 21835.59,19506.05 22585.59,19939.06 22585.59,20805.09 22585.59,21671.11 21835.59,22104.13 21085.59,22537.14 20335.59,22104.13 19585.59,21671.11 19585.59,20805.09 19585.59,19939.06 20335.59,19506.05 "/>
     <polygon class="fil1 str0" points="22585.59,11282.9 23335.59,11715.91 24085.59,12148.92 24085.59,13014.95 24085.59,13880.97 23335.59,14313.99 22585.59,14747 21835.59,14313.99 21085.59,13880.97 21085.59,13014.95 21085.59,12148.92 21835.59,11715.91 "/>
     <polygon class="fil1 str0" points="22585.59,16480.55 23335.59,16913.56 24085.59,17346.57 24085.59,18212.6 24085.59,19078.62 23335.59,19511.64 22585.59,19944.65 21835.59,19511.64 21085.59,19078.62 21085.59,18212.6 21085.59,17346.57 21835.59,16913.56 "/>
     <polygon class="fil1 str0" points="19585.59,21678.2 20335.59,22111.21 21085.59,22544.22 21085.59,23410.25 21085.59,24276.27 20335.59,24709.29 19585.59,25142.3 18835.59,24709.29 18085.59,24276.27 18085.59,23410.25 18085.59,22544.22 18835.59,22111.21 "/>
     <polygon class="fil1 str0" points="15085.59,8677.74 15835.59,9110.75 16585.59,9543.76 16585.59,10409.79 16585.59,11275.81 15835.59,11708.83 15085.59,12141.84 14335.59,11708.83 13585.59,11275.81 13585.59,10409.79 13585.59,9543.76 14335.59,9110.75 "/>
     <polygon class="fil1 str0" points="15085.59,13875.39 15835.59,14308.4 16585.59,14741.41 16585.59,15607.44 16585.59,16473.46 15835.59,16906.48 15085.59,17339.49 14335.59,16906.48 13585.59,16473.46 13585.59,15607.44 13585.59,14741.41 14335.59,14308.4 "/>
     <polygon class="fil1 str0" points="12085.59,19073.04 12835.59,19506.05 13585.59,19939.06 13585.59,20805.09 13585.59,21671.11 12835.59,22104.13 12085.59,22537.14 11335.59,22104.13 10585.59,21671.11 10585.59,20805.09 10585.59,19939.06 11335.59,19506.05 "/>
     <polygon class="fil1 str0" points="13585.59,11282.9 14335.59,11715.91 15085.59,12148.92 15085.59,13014.95 15085.59,13880.97 14335.59,14313.99 13585.59,14747 12835.59,14313.99 12085.59,13880.97 12085.59,13014.95 12085.59,12148.92 12835.59,11715.91 "/>
     <polygon class="fil1 str0" points="13585.59,16480.55 14335.59,16913.56 15085.59,17346.57 15085.59,18212.6 15085.59,19078.62 14335.59,19511.64 13585.59,19944.65 12835.59,19511.64 12085.59,19078.62 12085.59,18212.6 12085.59,17346.57 12835.59,16913.56 "/>
     <polygon class="fil1 str0" points="10585.59,21678.2 11335.59,22111.21 12085.59,22544.22 12085.59,23410.25 12085.59,24276.27 11335.59,24709.29 10585.59,25142.3 9835.59,24709.29 9085.59,24276.27 9085.59,23410.25 9085.59,22544.22 9835.59,22111.21 "/>
     <polygon class="fil1 str0" points="21085.59,8677.74 21835.59,9110.75 22585.59,9543.76 22585.59,10409.79 22585.59,11275.81 21835.59,11708.83 21085.59,12141.84 20335.59,11708.83 19585.59,11275.81 19585.59,10409.79 19585.59,9543.76 20335.59,9110.75 "/>
     <polygon class="fil1 str0" points="21085.59,13875.39 21835.59,14308.4 22585.59,14741.41 22585.59,15607.44 22585.59,16473.46 21835.59,16906.48 21085.59,17339.49 20335.59,16906.48 19585.59,16473.46 19585.59,15607.44 19585.59,14741.41 20335.59,14308.4 "/>
     <polygon class="fil1 str0" points="18085.59,19073.04 18835.59,19506.05 19585.59,19939.06 19585.59,20805.09 19585.59,21671.11 18835.59,22104.13 18085.59,22537.14 17335.59,22104.13 16585.59,21671.11 16585.59,20805.09 16585.59,19939.06 17335.59,19506.05 "/>
     <polygon class="fil1 str0" points="19585.59,11282.9 20335.59,11715.91 21085.59,12148.92 21085.59,13014.95 21085.59,13880.97 20335.59,14313.99 19585.59,14747 18835.59,14313.99 18085.59,13880.97 18085.59,13014.95 18085.59,12148.92 18835.59,11715.91 "/>
     <polygon class="fil1 str0" points="19585.59,16480.55 20335.59,16913.56 21085.59,17346.57 21085.59,18212.6 21085.59,19078.62 20335.59,19511.64 19585.59,19944.65 18835.59,19511.64 18085.59,19078.62 18085.59,18212.6 18085.59,17346.57 18835.59,16913.56 "/>
     <polygon class="fil1 str0" points="16585.59,21678.2 17335.59,22111.21 18085.59,22544.22 18085.59,23410.25 18085.59,24276.27 17335.59,24709.29 16585.59,25142.3 15835.59,24709.29 15085.59,24276.27 15085.59,23410.25 15085.59,22544.22 15835.59,22111.21 "/>
     <polygon class="fil1 str0" points="27085.59,8677.74 27835.59,9110.75 28585.59,9543.76 28585.59,10409.79 28585.59,11275.81 27835.59,11708.83 27085.59,12141.84 26335.59,11708.83 25585.59,11275.81 25585.59,10409.79 25585.59,9543.76 26335.59,9110.75 "/>
     <polygon class="fil1 str0" points="27085.59,13875.39 27835.59,14308.4 28585.59,14741.41 28585.59,15607.44 28585.59,16473.46 27835.59,16906.48 27085.59,17339.49 26335.59,16906.48 25585.59,16473.46 25585.59,15607.44 25585.59,14741.41 26335.59,14308.4 "/>
     <polygon class="fil1 str0" points="24085.59,19073.04 24835.59,19506.05 25585.59,19939.06 25585.59,20805.09 25585.59,21671.11 24835.59,22104.13 24085.59,22537.14 23335.59,22104.13 22585.59,21671.11 22585.59,20805.09 22585.59,19939.06 23335.59,19506.05 "/>
     <polygon class="fil1 str0" points="25585.59,11282.9 26335.59,11715.91 27085.59,12148.92 27085.59,13014.95 27085.59,13880.97 26335.59,14313.99 25585.59,14747 24835.59,14313.99 24085.59,13880.97 24085.59,13014.95 24085.59,12148.92 24835.59,11715.91 "/>
     <polygon class="fil1 str0" points="25585.59,16480.55 26335.59,16913.56 27085.59,17346.57 27085.59,18212.6 27085.59,19078.62 26335.59,19511.64 25585.59,19944.65 24835.59,19511.64 24085.59,19078.62 24085.59,18212.6 24085.59,17346.57 24835.59,16913.56 "/>
     <polygon class="fil1 str0" points="22585.59,21678.2 23335.59,22111.21 24085.59,22544.22 24085.59,23410.25 24085.59,24276.27 23335.59,24709.29 22585.59,25142.3 21835.59,24709.29 21085.59,24276.27 21085.59,23410.25 21085.59,22544.22 21835.59,22111.21 "/>
    </g>
   </g>
  </g>
  <path class="fil1 str0" d="M17499.4 11239.53c3457.89,0 6261.07,2803.18 6261.07,6261.07 0,3457.89 -2803.18,6261.07 -6261.07,6261.07 -3457.89,0 -6261.07,-2803.18 -6261.07,-6261.07 0,-3457.89 2803.18,-6261.07 6261.07,-6261.07z"/>
  <g style="clip-path:url(#id1)">
   <polygon class="fil2" points="8698.33,8699.53 26300.47,8699.53 26300.47,26301.67 8698.33,26301.67 "/>
   <g id="Layer_x0020_1_0">
    <metadata id="CorelCorpID_1Corel-Layer"/>
    <g>
    </g>
   </g>
   <g style="clip-path:url(#id2)">
    <g id="_1400366105952">
     <g>
      <path id="_1" class="fil0 str0" d="M12087.04 8676.85c377.58,215.05 377.58,215.05 749.8,433.21 374.02,217.06 374.02,217.06 756.13,430.08 -3.88,434.83 -3.88,434.83 -6.39,869.11 0.59,432.63 0.59,432.63 -0.46,866.23 -371.11,213.7 -371.11,213.7 -746.3,429.96 -375.35,216.39 -375.35,216.39 -752.59,434.76 -371.15,-220.55 -371.15,-220.55 -749.88,-433.23 -374.03,-217.6 -374.03,-217.6 -748.09,-435.22 -3.29,-429.33 -3.29,-429.33 0.28,-865.8 3.33,-435.86 3.33,-435.86 -2.6,-863.36 378.13,-218.91 378.13,-218.91 752.15,-434.41 379.33,-219.19 379.33,-219.19 747.95,-431.33z"/>
      <path class="fil0 str0" d="M12087.57 13872.43c108.98,65.37 108.98,65.37 221.3,125.75 20.12,-9.04 20.12,-9.04 61.65,-10.9 92.42,18.73 92.42,18.73 232.06,57.26 -170.63,441.9 -170.63,441.9 -321.66,931.43 -125.05,527.98 -125.05,527.98 -222.22,1091.3 -263.3,350.57 -263.3,350.57 -470.39,675 -154.94,298.91 -154.94,298.91 -261.46,569.44 -49.98,-219.85 -49.98,-219.85 -58.78,-414.89 1.43,-18.73 1.43,-18.73 2.17,-31.24 -342.46,-194.69 -342.46,-194.69 -684.54,-392.87 0.56,-435.42 0.56,-435.42 0.5,-867.49 -0.52,-431.05 -0.52,-431.05 1.81,-869.87 374.13,-213.85 374.13,-213.85 749.93,-431.46 374.08,-214.4 374.08,-214.4 749.63,-431.46z"/>
      <path class="fil0 str0" d="M9086.91 19080.07c374.79,214.48 374.79,214.48 750,430.99 375.23,216.57 375.23,216.57 749.95,431.59 1.45,435.96 1.45,435.96 1.17,867.53 -2.41,427.96 -2.41,427.96 0.96,866.55 -374.93,216.64 -374.93,216.64 -750.31,432.53 -375.82,215.16 -375.82,215.16 -752.08,429.56 -371.39,-209.78 -371.39,-209.78 -750.74,-434.15 -372.95,-212.04 -372.95,-212.04 -748.64,-429.7 -1.36,-436.18 -1.36,-436.18 1.2,-861.43 -0.91,-434.89 -0.91,-434.89 -1.81,-870.37 375.63,-213.6 375.63,-213.6 749.27,-435.79 376.13,-210.91 376.13,-210.91 751.03,-427.31z"/>
      <path class="fil1 str0" d="M10586.56 11281.83c374.28,217.32 374.28,217.32 754.32,428.46 373.16,218.56 373.16,218.56 749.89,433.41 -4.79,437.81 -4.79,437.81 -2.13,867.57 -3.03,436.67 -3.03,436.67 -2.11,868.31 -375.48,217.13 -375.48,217.13 -749.51,431.65 -375.74,217.77 -375.74,217.77 -749.85,431.8 -374.65,-217.25 -374.65,-217.25 -749.85,-433.18 -376.28,-213.43 -376.28,-213.43 -750.55,-431.61 1.75,-436.34 1.75,-436.34 2.39,-869.97 -0.73,-431.2 -0.73,-431.2 -3.14,-860.02 379.07,-222.33 379.07,-222.33 749.71,-432.51 379.54,-222.01 379.54,-222.01 750.83,-433.91z"/>
      <path class="fil1 str0" d="M10585.71 16479.78c341.81,197.75 341.81,197.75 683.98,392.03 -1.42,18.74 -1.42,18.74 -2.2,31.24 9.02,195.04 9.02,195.04 59.03,421 4.68,495.07 4.68,495.07 42.07,988.01 67.35,472 67.35,472 165.84,933.49 -11.78,81.58 -11.78,81.58 -1.6,157.05 -97.53,57.85 -97.53,57.85 -196.8,110.37 -374.86,216.86 -374.86,216.86 -748.47,437.21 -374.74,-214.78 -374.74,-214.78 -750.01,-431.1 -375.23,-216.23 -375.23,-216.23 -751.65,-438.82 0.08,-431.82 0.08,-431.82 -0.19,-866.22 0.01,-430.7 0.01,-430.7 -0.07,-869.89 375.15,-218.36 375.15,-218.36 750.03,-431.69 375.57,-221.18 375.57,-221.18 750.04,-432.68z"/>
      <path class="fil1 str0" d="M7588.86 21685.95c375.75,217.46 375.75,217.46 748.77,429.31 374.59,215.42 374.59,215.42 750.9,433.85 0.23,432.99 0.23,432.99 -1.31,863.45 2.43,436.07 2.43,436.07 2.62,868.97 -375.37,216.11 -375.37,216.11 -753.91,428.18 -374.23,217.51 -374.23,217.51 -743.43,441.54 -378.44,-220.66 -378.44,-220.66 -755.76,-440.26 -369.41,-207.59 -369.41,-207.59 -745.29,-424.86 -3.42,-438.5 -3.42,-438.5 -0.91,-866.35 -3.77,-440.1 -3.77,-440.1 -2.39,-869.79 374.19,-218.28 374.19,-218.28 749.77,-433.41 376.92,-211.95 376.92,-211.95 750.94,-430.63z"/>
      <path class="fil0 str0" d="M18089.59 8678.01c375.93,216.8 375.93,216.8 753.21,433.9 371.18,216.07 371.18,216.07 745.81,432.64 -0.66,432.89 -0.66,432.89 1.66,866.62 -3.74,431.93 -3.74,431.93 -2.08,865.52 -176.72,103.37 -176.72,103.37 -353.32,206.68 -158.14,-38.76 -158.14,-38.76 -330.31,-71.88 -348.36,-38.09 -348.36,-38.09 -729.06,-43.86 -435.41,-67.94 -435.41,-67.94 -851.93,-99.71 -356.4,1.28 -356.4,1.28 -692.96,31.9 -20.73,-12.27 -20.73,-12.27 -41.55,-24.51 -2.15,-432.68 -2.15,-432.68 3.36,-866.39 -1.87,-432.75 -1.87,-432.75 -5.71,-865.29 378.98,-216.71 378.98,-216.71 751.55,-432.92 374.59,-216.41 374.59,-216.41 751.33,-432.7z"/>
      <path class="fil0 str0" d="M18359.03 12200.65c574.61,232.1 574.61,232.1 1150.01,503.93 574.96,311.06 574.96,311.06 1127.48,650.42 133.47,504.16 133.47,504.16 252.63,1075.22 99.86,631.43 99.86,631.43 178.14,1315.98 -524.79,314.33 -524.79,314.33 -1113.98,664.43 -644.93,379.99 -644.93,379.99 -1332.68,782.07 -714.93,-417.11 -714.93,-417.11 -1433.52,-828.41 -703.78,-393.76 -703.78,-393.76 -1373.45,-761.83 41.3,-735.28 41.3,-735.28 91.76,-1408.37 59.07,-602.03 59.07,-602.03 128.14,-1128.63 616.04,-282.97 616.04,-282.97 1211.79,-522.1 577.96,-194.11 577.96,-194.11 1113.68,-342.71z"/>
      <path class="fil0 str0" d="M13609.29 20035.91c542.54,404.25 542.54,404.25 1126.88,797.7 614.95,374.16 614.95,374.16 1246.07,719.74 70.78,506.4 70.78,506.4 141.36,933.82 73.6,353.11 73.6,353.11 146.68,636.4 -432.22,43.34 -432.22,43.34 -817.76,51.26 -337.14,-22.96 -337.14,-22.96 -631.51,-75.37 -426.77,-228.06 -426.77,-228.06 -832.32,-480.5 -388.28,-279.08 -388.28,-279.08 -747.85,-576.37 -205.91,-276.64 -205.91,-276.64 -403.54,-602.45 -187.63,-376.77 -187.63,-376.77 -362.78,-806.02 196.05,-95.36 196.05,-95.36 445.63,-226.76 310.92,-167.32 310.92,-167.32 689.14,-371.45z"/>
      <path class="fil1 str0" d="M16590.07 11282.25c14.09,9.66 14.09,9.66 28.14,19.31 342.75,-31.61 342.75,-31.61 705.38,-32.85 416.46,32.15 416.46,32.15 851.74,100.41 41.33,122.19 41.33,122.19 91.34,298.84 43.23,235.09 43.23,235.09 91.69,536.82 -535.35,149.26 -535.35,149.26 -1112.74,343.88 -599.73,240.22 -599.73,240.22 -1214.7,523.67 -521.93,-161.27 -521.93,-161.27 -984.23,-280.6 -410.39,-76.13 -410.39,-76.13 -759.94,-118.46 164.89,-301.16 164.89,-301.16 326.72,-541.75 159.91,-185.95 159.91,-185.95 322.03,-323.15 420.26,-176.58 420.26,-176.58 840.32,-319.72 380.88,-101.31 380.88,-101.31 761.81,-175.54 23.07,-14.96 23.07,-14.96 52.44,-30.86z"/>
      <path class="fil1 str0" d="M15812.04 15615.88c671.1,367.57 671.1,367.57 1375.1,761.69 718.51,411.52 718.51,411.52 1433.76,829.49 -1.59,826.26 -1.59,826.26 -12.87,1640.08 -19.04,778.46 -19.04,778.46 -48.59,1506.01 -679.8,360.43 -679.8,360.43 -1347.98,685.49 -635.87,283.24 -635.87,283.24 -1227.36,522.1 -632.21,-345.74 -632.21,-345.74 -1244.54,-717.63 -585.02,-393.46 -585.02,-393.46 -1127.95,-797.61 -93.2,-653.22 -93.2,-653.22 -159.6,-1347.71 -36.81,-722.97 -36.81,-722.97 -41.45,-1461.67 519.74,-387.17 519.74,-387.17 1100.08,-791.39 631.37,-414.2 631.37,-414.2 1301.4,-828.85z"/>
      <path class="fil1 str0" d="M13244.92 22047.34c359.82,297.08 359.82,297.08 743.24,572.4 410.94,255.64 410.94,255.64 832.4,480.66 135.83,106.91 135.83,106.91 267.83,179.91 0.05,65.56 0.05,65.56 0.56,131.3 -0.57,432.71 -0.57,432.71 -3.19,864.71 -373.01,217.31 -373.01,217.31 -747.49,434.14 -373.63,217.26 -373.63,217.26 -751.7,432.34 -371.64,-214.51 -371.64,-214.51 -750.7,-433.33 -373.62,-215.5 -373.62,-215.5 -743.96,-428.16 -4.09,-436.16 -4.09,-436.16 -3.75,-868.72 -0.23,-433.05 -0.23,-433.05 0.35,-865.23 375.22,-216.38 375.22,-216.38 751.38,-431.81 132.89,-77.5 132.89,-77.5 264.24,-155.98 59.76,46.26 59.76,46.26 140.79,87.77z"/>
      <path class="fil0 str0" d="M24090.39 8681.33c376.1,217.7 376.1,217.7 747.71,431.62 376.45,218.05 376.45,218.05 750.16,433.53 0.24,433.44 0.24,433.44 3.76,870.65 -0.98,432.31 -0.98,432.31 -6.08,859.14 -369.91,223.04 -369.91,223.04 -748.66,434.71 -375.06,216.4 -375.06,216.4 -751.69,430.86 -372.24,-213.42 -372.24,-213.42 -746.66,-429.63 -377.97,-219.55 -377.97,-219.55 -748.84,-432.72 -1.64,-434.5 -1.64,-434.5 -0.55,-866.86 -1.3,-434.06 -1.3,-434.06 -3.68,-868.68 380.88,-212.58 380.88,-212.58 749.83,-433.12 380.54,-212.51 380.54,-212.51 754.7,-429.5z"/>
      <path class="fil0 str0" d="M24086.21 13876.51c375.58,217.84 375.58,217.84 750.72,434.97 374.51,215.63 374.51,215.63 750.96,436.67 -2.05,427.16 -2.05,427.16 -0.46,867.22 -0.9,430.32 -0.9,430.32 -1.49,860.9 -374.75,219.4 -374.75,219.4 -749.88,436.14 -375.4,211.92 -375.4,211.92 -750.4,430.09 -167.71,-98.78 -167.71,-98.78 -335.01,-192.34 -13.89,-137.06 -13.89,-137.06 -40.48,-278.99 -82,-278.05 -82,-278.05 -209.62,-580.82 -91.06,-482.83 -91.06,-482.83 -210.83,-942.84 -142.48,-423.47 -142.48,-423.47 -310.27,-819.37 14.71,-15.09 14.71,-15.09 18.44,-24.24 171.27,-93.34 171.27,-93.34 339.33,-192.52 376.51,-213.75 376.51,-213.75 748.99,-434.87z"/>
      <path class="fil0 str0" d="M22575.84 19725.11c206.75,160.21 206.75,160.21 360.17,288.6 107,96.71 107,96.71 167.91,173.47 -167.67,376.02 -167.67,376.02 -357.49,721.19 -76.99,121.66 -76.99,121.66 -158.44,240.4 -0.38,260.21 -0.38,260.21 0.93,518.28 -374.9,216.87 -374.9,216.87 -751.98,435.8 -129.36,73.68 -129.36,73.68 -262.09,150.81 -218.09,178.33 -218.09,178.33 -444.11,346.47 -173.91,88.93 -173.91,88.93 -389.8,154.53 -265.62,43.81 -265.62,43.81 -577.27,59.21 147.39,-284.28 147.39,-284.28 294.8,-633.05 142.41,-415.69 142.41,-415.69 275.98,-899.66 532.46,-381.71 532.46,-381.71 1021.12,-774.06 437.38,-393.43 437.38,-393.43 820.27,-781.99z"/>
      <path class="fil1 str0" d="M22586.61 11283.74c376.82,218.26 376.82,218.26 754.57,437.82 374.22,216.23 374.22,216.23 746.3,429.69 0.36,433.72 0.36,433.72 2.17,869.68 -1.59,431.06 -1.59,431.06 -2.18,863.46 -376.1,214.52 -376.1,214.52 -749.42,434.12 -170.05,92.68 -170.05,92.68 -337.1,190.85 -3.87,9.22 -3.87,9.22 -18.79,24.41 -233.05,-339.12 -233.05,-339.12 -509.71,-682 -319.78,-342.7 -319.78,-342.7 -682.43,-681.46 -197.04,-292.14 -197.04,-292.14 -399.03,-533.64 -153.38,-148.54 -153.38,-148.54 -300.66,-265.21 -0.5,-110.02 -0.5,-110.02 -2.51,-221.04 375.35,-216.18 375.35,-216.18 750.96,-432.11 373.26,-217.76 373.26,-217.76 747.83,-434.57z"/>
      <path class="fil1 str0" d="M23502.6 16302.43c126.29,296.85 126.29,296.85 208.13,574.96 26.49,141.95 26.49,141.95 40.26,279.03 167.18,93.72 167.18,93.72 334.66,192.67 0.03,428.3 0.03,428.3 0.42,858.99 -0.34,436.67 -0.34,436.67 -0.23,869.47 -315.43,178.87 -315.43,178.87 -632.29,363.21 -17.07,47.11 -17.07,47.11 -33.82,94.32 -136.77,322.62 -136.77,322.62 -315.48,652.26 -63.28,-71.1 -63.28,-71.1 -169.95,-167.82 -153.03,-128.43 -153.03,-128.43 -359.32,-288.73 104.36,-576.62 104.36,-576.62 179.84,-1192.19 39.92,-629.45 39.92,-629.45 45.05,-1260.75 258.9,-295.77 258.9,-295.77 458.88,-553.66 146.34,-225.19 146.34,-225.19 243.85,-421.76z"/>
      <path class="fil1 str0" d="M20159.53 22818.88c311.42,-15.78 311.42,-15.78 576.81,-59.92 220.86,-69.35 220.86,-69.35 394.46,-158.75 -20.16,14.87 -20.16,14.87 -40.47,29.53 -0.66,389.26 -0.66,389.26 -2.59,779.19 -0.88,433.61 -0.88,433.61 -2.13,867.32 -373.11,215.65 -373.11,215.65 -743.12,430.31 -376.49,217.44 -376.49,217.44 -754.69,435.13 -375.03,-216.41 -375.03,-216.41 -748.47,-433.09 -377.44,-216.01 -377.44,-216.01 -750.37,-432.63 2.61,-271.31 2.61,-271.31 -3.16,-541.83 18.4,-4.85 18.4,-4.85 36.17,-15.89 37.59,-59.71 37.59,-59.71 81.14,-167.68 477.55,-125.22 477.55,-125.22 969.98,-290.23 493.39,-202.13 493.39,-202.13 986.44,-441.46z"/>
      <path class="fil1 str0" d="M15093.07 8675.7c371,217.73 371,217.73 747.29,434.11 371.81,217.21 371.81,217.21 746.35,433.82 3.85,432.55 3.85,432.55 5.71,865.29 -5.51,433.71 -5.51,433.71 -3.36,866.39 -35.07,20.44 -35.07,20.44 -69.97,40.84 -368.53,72.4 -368.53,72.4 -743.37,172.14 -420.14,143.01 -420.14,143.01 -840.46,319.53 -130.24,46 -130.24,46 -250.66,98.97 -172.67,-99.97 -172.67,-99.97 -344.58,-200.37 -378.95,-214.38 -378.95,-214.38 -753.9,-430.94 1.05,-433.6 1.05,-433.6 0.46,-866.23 2.5,-434.29 2.5,-434.29 6.39,-869.11 370.87,-214.3 370.87,-214.3 746.03,-430.67 372.97,-215.67 372.97,-215.67 754.07,-433.77z"/>
      <path class="fil1 str0" d="M14285.42 12671.28c354.09,38.8 354.09,38.8 759.48,117 466.79,116.42 466.79,116.42 988.66,277.18 -69.07,526.61 -69.07,526.61 -128.14,1128.63 -50.46,673.09 -50.46,673.09 -91.76,1408.37 -670.96,415.38 -670.96,415.38 -1302.23,829.09 -580.96,406.36 -580.96,406.36 -1100.65,792.27 -440.43,-336.5 -440.43,-336.5 -810.04,-648.03 -303.28,-269.03 -303.28,-269.03 -542.04,-508.52 97.17,-563.32 97.17,-563.32 222.22,-1091.3 151.02,-489.53 151.02,-489.53 321.66,-931.43 361.93,-360.47 361.93,-360.47 768.22,-715.66 441.91,-339.08 441.91,-339.08 914.62,-657.6z"/>
      <path class="fil1 str0" d="M11532.91 19239.52c161.85,324.8 161.85,324.8 372.52,669.77 260.07,358.66 260.07,358.66 569.09,724.83 175.15,429.25 175.15,429.25 362.78,806.02 197.63,325.81 197.63,325.81 403.54,602.45 -81.34,-41.22 -81.34,-41.22 -141.17,-87.41 -129.69,76.6 -129.69,76.6 -260.86,152.2 -376.38,215.18 -376.38,215.18 -751.8,431.27 -375.16,-216.52 -375.16,-216.52 -750.95,-433.9 -372.61,-212.88 -372.61,-212.88 -747.07,-428.02 -3.37,-438.59 -3.37,-438.59 -0.96,-866.55 0.28,-431.57 0.28,-431.57 -1.17,-867.53 373.79,-219.94 373.79,-219.94 748.8,-436.38 98.5,-52.15 98.5,-52.15 195.25,-109.63 -10.02,-75.5 -10.02,-75.5 2,-157.12z"/>
      <path class="fil1 str0" d="M13589.31 11280.56c374.86,216.74 374.86,216.74 747.89,434.47 170.46,97.49 170.46,97.49 341.79,194.54 120.45,-52.92 120.45,-52.92 256.51,-101.2 -162.12,137.2 -162.12,137.2 -322.03,323.15 -161.83,240.59 -161.83,240.59 -326.72,541.75 -477.19,321.88 -477.19,321.88 -918.8,661.07 -406.07,355.27 -406.07,355.27 -767.83,715.8 -136.51,-43.67 -136.51,-43.67 -232.73,-57.47 -41.82,1.7 -41.82,1.7 -61.98,10.73 -107.55,-64.72 -107.55,-64.72 -218.88,-123.82 -0.92,-431.64 -0.92,-431.64 2.11,-868.31 -2.66,-429.76 -2.66,-429.76 2.13,-867.57 371.65,-212.93 371.65,-212.93 746.71,-429.31 374.87,-216.24 374.87,-216.24 751.83,-433.83z"/>
      <path class="fil1 str0" d="M12056.92 16078.44c239.35,238.99 239.35,238.99 542.27,512.27 370.98,305.8 370.98,305.8 811.37,645.41 4.64,738.7 4.64,738.7 41.45,1461.67 66.4,694.49 66.4,694.49 159.6,1347.71 -377.35,204.55 -377.35,204.55 -690.39,367.61 -249.06,131.39 -249.06,131.39 -444.64,226.7 -309.15,-366.09 -309.15,-366.09 -569.34,-724.67 -210.81,-344.87 -210.81,-344.87 -372.81,-669.59 -98.49,-461.49 -98.49,-461.49 -165.84,-933.49 -37.39,-492.94 -37.39,-492.94 -42.07,-988.01 106.11,-270.73 106.11,-270.73 260.65,-569.91 206.72,-324.77 206.72,-324.77 469.75,-675.7z"/>
      <path class="fil1 str0" d="M10585.85 21678.62c378.72,221.99 378.72,221.99 751.42,434.84 375.92,217.37 375.92,217.37 751.24,433.9 -0.58,432.18 -0.58,432.18 -0.35,865.23 -0.34,432.56 -0.34,432.56 3.75,868.72 -379.09,213.31 -379.09,213.31 -754.76,429.31 -370.59,220.42 -370.59,220.42 -749.81,433.26 -369.87,-211.35 -369.87,-211.35 -746.07,-428.57 -375.69,-216.79 -375.69,-216.79 -751.43,-433.78 -0.19,-432.9 -0.19,-432.9 -2.62,-868.97 1.54,-430.47 1.54,-430.47 1.31,-863.45 376.04,-214.78 376.04,-214.78 751.64,-430.31 370.76,-223.55 370.76,-223.55 745.68,-440.18z"/>
      <path class="fil1 str0" d="M21092.01 8680.36c372.37,215.63 372.37,215.63 750.03,433.74 375.93,217.43 375.93,217.43 743.82,429.85 2.37,434.63 2.37,434.63 3.68,868.68 -1.09,432.36 -1.09,432.36 0.55,866.86 -374.61,216.68 -374.61,216.68 -753.69,429.95 -375.47,216.15 -375.47,216.15 -750.66,432.51 -373.85,-215.87 -373.85,-215.87 -747.67,-431.9 -377.4,-217.69 -377.4,-217.69 -749.88,-433.36 -1.66,-433.59 -1.66,-433.59 2.08,-865.52 -2.32,-433.74 -2.32,-433.74 -1.66,-866.62 374.5,-216.54 374.5,-216.54 753.75,-431.51 374.05,-216.62 374.05,-216.62 749.65,-432.68z"/>
      <path class="fil1 str0" d="M21790.83 13169.49c358.56,334.31 358.56,334.31 678.54,676.89 276.85,342.76 276.85,342.76 510.08,681.76 167.79,395.9 167.79,395.9 310.27,819.37 119.77,460.01 119.77,460.01 210.83,942.84 -97.02,196.77 -97.02,196.77 -242.88,422.26 -199.53,258.32 -199.53,258.32 -458.01,554.63 -335.94,-350.13 -335.94,-350.13 -737.19,-720.16 -467.27,-394.7 -467.27,-394.7 -995.18,-800.88 -78.28,-684.55 -78.28,-684.55 -178.14,-1315.98 -119.16,-571.06 -119.16,-571.06 -252.63,-1075.22 375.17,-94.45 375.17,-94.45 687.7,-155.99 257.48,-29.85 257.48,-29.85 466.61,-29.52z"/>
      <path class="fil1 str0" d="M18562.24 20343.26c628.62,299.72 628.62,299.72 1202.95,557.55 518.19,210.74 518.19,210.74 969.26,380.35 -133.57,483.97 -133.57,483.97 -275.98,899.66 -147.41,348.77 -147.41,348.77 -294.8,633.05 -492.59,239.7 -492.59,239.7 -991.29,444.02 -486.26,163.96 -486.26,163.96 -963.46,289.91 -446.52,-45.94 -446.52,-45.94 -917.87,-131.12 -502.76,-126.03 -502.76,-126.03 -1020.77,-293.11 -73.08,-283.29 -73.08,-283.29 -146.68,-636.4 -70.57,-427.43 -70.57,-427.43 -141.36,-933.82 595.06,-238.54 595.06,-238.54 1229.88,-522.77 666.52,-325.45 666.52,-325.45 1350.12,-687.32z"/>
      <path class="fil1 str0" d="M19586.06 11283.06c378.12,217.83 378.12,217.83 754.99,435.53 373.34,216.02 373.34,216.02 746.77,431.83 2.01,111.02 2.01,111.02 2.51,221.04 147.28,116.67 147.28,116.67 300.66,265.21 201.99,241.5 201.99,241.5 399.03,533.64 -205.13,4.14 -205.13,4.14 -463,34.22 -312.98,61.81 -312.98,61.81 -688.63,156.59 -556.46,-341.9 -556.46,-341.9 -1126.24,-650.52 -579.69,-273.66 -579.69,-273.66 -1153.79,-505.82 -48.46,-301.73 -48.46,-301.73 -91.69,-536.82 -50.01,-176.65 -50.01,-176.65 -91.34,-298.84 386.82,6.33 386.82,6.33 735.2,44.28 172.22,32.93 172.22,32.93 330.33,71.79 175.74,-100.05 175.74,-100.05 345.2,-202.13z"/>
      <path class="fil1 str0" d="M21068.84 15758.72c527.86,406.78 527.86,406.78 994.01,797.8 401.83,375.57 401.83,375.57 737.02,721.33 -5.13,631.3 -5.13,631.3 -45.05,1260.75 -75.48,615.57 -75.48,615.57 -179.84,1192.19 -382.85,388.57 -382.85,388.57 -820.22,782.13 -488.74,392.56 -488.74,392.56 -1021.5,774.52 -450.49,-169.21 -450.49,-169.21 -968.17,-379.4 -577.16,-255.41 -577.16,-255.41 -1205.65,-554.89 29.55,-727.55 29.55,-727.55 48.59,-1506.01 11.28,-813.82 11.28,-813.82 12.87,-1640.08 688.12,-402.11 688.12,-402.11 1333.47,-782.23 588.34,-353.24 588.34,-353.24 1114.47,-666.11z"/>
      <path class="fil1 str0" d="M16269.48 23127.24c524.19,167.54 524.19,167.54 1021.46,292.49 471.57,84.72 471.57,84.72 912.17,130.84 -43.55,107.97 -43.55,107.97 -81.14,167.68 -17.77,11.04 -17.77,11.04 -36.17,15.89 5.77,270.52 5.77,270.52 3.16,541.83 -374.16,216.67 -374.16,216.67 -749.65,433.4 -376.98,216.55 -376.98,216.55 -747.51,433.67 -376.33,-216.41 -376.33,-216.41 -751.66,-432.71 -375.95,-216.51 -375.95,-216.51 -754.38,-434.01 2.62,-432 2.62,-432 3.19,-864.71 -0.51,-65.74 -0.51,-65.74 -0.56,-131.3 -132,-73 -132,-73 -267.83,-179.91 294.19,52.98 294.19,52.98 631.18,76.6 385.47,-7.21 385.47,-7.21 817.74,-49.76z"/>
      <path class="fil1 str0" d="M27094.02 8686.92c371.37,212.91 371.37,212.91 748.55,432.44 374.64,216.59 374.64,216.59 747.18,430.21 -2.18,430.14 -2.18,430.14 -3.92,860.61 5.24,441.75 5.24,441.75 3.62,872.53 -377.67,211.75 -377.67,211.75 -749.55,433.84 -377.88,211.37 -377.88,211.37 -750.39,432.32 -377.33,-220.9 -377.33,-220.9 -752.74,-438.24 -373.35,-214.32 -373.35,-214.32 -750.83,-434.36 5.1,-426.83 5.1,-426.83 6.08,-859.14 -3.51,-437.22 -3.51,-437.22 -3.76,-870.65 373.11,-218.41 373.11,-218.41 751.46,-431.37 374.87,-216.58 374.87,-216.58 754.3,-428.19z"/>
      <path class="fil1 str0" d="M27087.57 13880.64c375.43,218.31 375.43,218.31 749.76,433.39 376.16,221.36 376.16,221.36 750.82,437.68 -0.65,431.87 -0.65,431.87 -2.31,857.24 1.14,442.09 1.14,442.09 0.15,868.8 -374.97,217.97 -374.97,217.97 -750.15,433.03 -374.92,221.08 -374.92,221.08 -750.13,436.43 -374.76,-215.27 -374.76,-215.27 -750.04,-439.53 -374.67,-213.36 -374.67,-213.36 -749.73,-431.41 0.59,-430.58 0.59,-430.58 1.49,-860.9 -1.59,-440.06 -1.59,-440.06 0.46,-867.22 373.22,-221.74 373.22,-221.74 749.84,-433.79 374.33,-218.47 374.33,-218.47 749.84,-433.72z"/>
      <path class="fil1 str0" d="M24086.15 19070.66c375.41,215.09 375.41,215.09 751.13,429.19 374.52,218.48 374.52,218.48 750.47,432.04 -1.53,438.42 -1.53,438.42 0.96,865.53 0.46,432.92 0.46,432.92 -2.4,872.29 -374.63,215.98 -374.63,215.98 -748.88,431.47 -373.86,215.16 -373.86,215.16 -747.56,430.35 -374.71,-216.8 -374.71,-216.8 -750.29,-432.47 -375.68,-215.57 -375.68,-215.57 -750.66,-432.01 -1.31,-258.07 -1.31,-258.07 -0.93,-518.28 81.45,-118.74 81.45,-118.74 158.44,-240.4 189.82,-345.17 189.82,-345.17 357.49,-721.19 181.22,-335.33 181.22,-335.33 317.8,-658.04 16.72,-47.21 16.72,-47.21 33.76,-94.34 316.1,-184.81 316.1,-184.81 630.67,-364.14z"/>
      <path class="fil1 str0" d="M25588.73 11286.99c377.34,220.16 377.34,220.16 750.58,434.61 375.3,217.48 375.3,217.48 747.18,428.95 -0.55,432.08 -0.55,432.08 2.07,870.76 0.95,435.96 0.95,435.96 -2.84,860.02 -372.08,224.45 -372.08,224.45 -749.77,433.68 -373.61,220.47 -373.61,220.47 -749.78,433.73 -373.64,-213.19 -373.64,-213.19 -748.1,-429.03 -375.09,-217.32 -375.09,-217.32 -750.6,-435.32 0.59,-432.4 0.59,-432.4 2.18,-863.46 -1.8,-435.97 -1.8,-435.97 -2.17,-869.68 376.86,-214.14 376.86,-214.14 752.15,-430.22 372.96,-219.05 372.96,-219.05 749.1,-434.04z"/>
      <path class="fil1 str0" d="M25586.08 16484.47c375.05,218.38 375.05,218.38 749.7,432.08 374.88,215.4 374.88,215.4 749.81,430.66 0.02,431.47 0.02,431.47 0.09,864.07 0.9,425.89 0.9,425.89 0.14,865.89 -374.5,214.18 -374.5,214.18 -748.67,427.58 -375.62,219.8 -375.62,219.8 -750.3,435.7 -375.78,-213.97 -375.78,-213.97 -750.15,-432.87 -375.58,-214.52 -375.58,-214.52 -750.86,-430.03 -0.11,-432.8 -0.11,-432.8 0.23,-869.47 -0.39,-430.69 -0.39,-430.69 -0.42,-858.99 375,-217.78 375,-217.78 750.43,-429.3 375.17,-216.33 375.17,-216.33 750,-435.32z"/>
      <path class="fil1 str0" d="M22588.22 21674.98c374.75,216.75 374.75,216.75 750.2,432.63 375.36,216 375.36,216 749.83,433.13 1.03,432.05 1.03,432.05 -0.83,867.47 1.74,431.33 1.74,431.33 2.08,864.25 -375.55,217.34 -375.55,217.34 -752.28,435.5 -371.85,214.32 -371.85,214.32 -747.48,431.57 -376.16,-215.65 -376.16,-215.65 -752.29,-431.37 -374.34,-216.82 -374.34,-216.82 -751.84,-431.91 1.25,-433.71 1.25,-433.71 2.13,-867.32 1.93,-389.93 1.93,-389.93 2.59,-779.19 20.31,-14.66 20.31,-14.66 40.47,-29.53 211.17,-156.65 211.17,-156.65 415.46,-322.18 144.02,-83.1 144.02,-83.1 289.61,-167.09 377.3,-219.01 377.3,-219.01 752.35,-435.96z"/>
     </g>
    </g>
   </g>
   <g style="clip-path:url(#id3)">
    <path class="fil1 str0" d="M17504.39 11239.53c3454.16,0.7 6258.14,2806.91 6256.08,6261.07 2.06,3454.16 -2801.92,6260.37 -6256.08,6261.07 -3460.43,1.35 -6262.61,-2796.94 -6266.06,-6264.78 3.45,-3460.42 2805.63,-6258.71 6266.06,-6257.36z"/>
   </g>
  </g>
  <path class="fil1 str0" d="M17499.4 11239.53c3457.89,0 6261.07,2803.18 6261.07,6261.07 0,3457.89 -2803.18,6261.07 -6261.07,6261.07 -3457.89,0 -6261.07,-2803.18 -6261.07,-6261.07 0,-3457.89 2803.18,-6261.07 6261.07,-6261.07z"/>
 </g>
</svg>
