<?xml version="1.0" encoding="UTF-8"?>
<!DOCTYPE svg PUBLIC "-//W3C//DTD SVG 1.1//EN" "http://www.w3.org/Graphics/SVG/1.1/DTD/svg11.dtd">
<!-- Creator: CorelDRAW -->
<svg xmlns="http://www.w3.org/2000/svg" xml:space="preserve" width="350mm" height="350mm" version="1.1" style="shape-rendering:geometricPrecision; text-rendering:geometricPrecision; image-rendering:optimizeQuality; fill-rule:evenodd; clip-rule:evenodd"
viewBox="0 0 35000 35000"
 xmlns:xlink="http://www.w3.org/1999/xlink"
 xmlns:xodm="http://www.corel.com/coreldraw/odm/2003">
 <defs>
  <style type="text/css">
   <![CDATA[
    .str0 {stroke:#2B2A29;stroke-width:20;stroke-miterlimit:22.9256}
    .str1 {stroke:#2B2A29;stroke-width:20;stroke-miterlimit:10.4334}
    .fil0 {fill:#7DB180}
    .fil1 {fill:#362F78}
   ]]>
  </style>
 </defs>
 <g id="Layer_x0020_1">
  <metadata id="CorelCorpID_0Corel-Layer"/>
  <path class="fil0 str0" d="M6770.69 19816.31c1489.89,479.74 2940.35,842.26 4343.04,1082.14 382.42,65.12 761.59,121.92 1136.41,169.68 0.36,-115.77 0.36,-231.19 0.36,-345.52 0,-273.88 -1.44,-536.91 -3.98,-789.08 -1127.36,-242.41 -2162.83,-657.75 -3103.51,-1245.68 -1615.79,-1000.73 -2892.95,-2251.47 -3830.73,-3752.58 -307.17,-500.37 -630.61,-750.37 -961.3,-750.37 -457.68,0 -685.97,142.91 -685.97,433.8 0,61.5 15.56,209.48 47.4,444.29l662.09 5421.92c78.51,536.19 307.17,806.81 685.97,806.81 370.12,0 677.29,-199.35 922.23,-597.33 212.73,-362.52 480.1,-653.77 787.99,-878.08z"/>
  <path class="fil0 str1" d="M26194.61 15590.49c51.37,-285.82 77.06,-582.5 77.06,-890.02 0,-1363.26 -725.05,-2603.87 -2175.86,-3716.77 -1466.01,-1117.96 -4264.17,-2057.55 -8402.06,-2818.05 -2632.82,-485.17 -4414.68,-995.67 -5344.5,-1531.5 -922.23,-541.25 -1387.14,-1143.65 -1387.14,-1812.61 0,-837.21 496.75,-1536.56 1489.89,-2087.94 993.14,-556.81 2238.09,-832.5 3727.98,-832.5 1537.28,0 3074.21,357.45 4595.57,1067.3 1521.37,709.49 2616.9,1511.24 3278.63,2399.45 386.76,520.63 646.53,827.08 788.36,924.04 133.86,96.96 362.88,142.91 670.41,142.91 417.52,0 630.62,-132.78 630.62,-403.41l-95.16 -494.94 -803.91 -4110.04c-94.07,-438.86 -354.57,-658.47 -772.44,-658.47 -291.61,0 -551.75,158.11 -788,474.68 -197.18,270.63 -402.32,469.62 -598.78,597.33 -2892.95,-674.03 -5210.63,-1010.87 -6944.37,-1010.87 -3216.4,0 -5754.06,546.32 -7622.75,1644.02 -1867.97,1097.7 -2805.75,2430.2 -2805.75,3997.52 0,893.28 378.08,1781.86 1142.92,2654.88 756.52,867.96 1773.54,1557.19 3042.73,2052.13 1260.51,500.36 3200.11,1026.42 5809.41,1572.74 2289.83,475.4 3981.6,973.6 5069.17,1487.35 185.24,87.56 353.11,175.48 503.26,263.76 442.84,262.66 791.26,550.65 1044.88,863.97 338.28,417.52 507.96,879.9 507.96,1387.5 0,888.22 -558.98,1686.35 -1670.79,2384.26 -729.02,457.31 -1608.19,764.84 -2635.34,924.03l-40.88 1168.62c1727.59,-85.03 3186.36,-346.25 4378.85,-785.83 1394.74,-509.78 2601.7,-1200.45 3626.31,-2067.69 63.32,-53.9 126.27,-108.17 188.14,-163.17 829.24,-736.26 1333.59,-1611.81 1515.58,-2622.68z"/>
  <path class="fil1 str0" d="M16330.21 28738.42c0,-1853.91 15.23,-3406.68 46.06,-4657.94l100.1 -2848.18 40.98 -1169.1 38.08 -1080.06c81.61,-2139.85 143.26,-3263.7 184.24,-3365.77 35.55,-97 138.19,-194.01 306.83,-291.01 163.93,-97.36 665.52,-143.33 1494.61,-143.33 632.52,0 1226.95,61.17 1783.67,182.42 -254.24,-313.45 -603.5,-601.56 -1047.43,-864.33 -150.51,-88.32 -318.79,-176.27 -504.49,-263.87l-4397.87 118.36c-480.91,0 -1330.67,-56.1 -2553.63,-168.31 -1100.38,-112.56 -1745.23,-168.66 -1934.55,-168.66 -322.42,0 -481.27,132.83 -481.27,398.5 0,265.67 179.16,413.71 542.57,444.12 1008.25,51.39 1642.94,378.23 1898.63,980.88 229.58,544.73 356.16,1906.75 380.09,4093.29 2.54,252.28 3.99,515.42 3.99,789.42 0,114.37 0,229.83 -0.36,345.66 -4.72,1786.22 -46.06,3733.87 -127.66,5834.63 -87.05,2241.92 -179.17,3733.52 -281.44,4484.2 -97.2,751.05 -338.02,1266.82 -721.74,1547.7 -383.72,280.87 -987.58,418.77 -1811.59,418.77 -435.22,0 -649.93,142.97 -649.93,428.92 0,188.93 56.22,311.63 173.73,362.67 112.79,56.1 404.39,81.8 864.99,81.8l1934.54 30.77 3306.2 -15.57c3173.1,61.53 4979.62,91.94 5419.91,91.94 1530.15,0 2860.83,-142.97 3992.03,-428.91 1135.92,-285.94 2277.28,-883.52 3428.79,-1792.74 1146.43,-909.22 2026.66,-2032.71 2630.53,-3365.78 608.94,-1338.12 911.05,-2773.62 911.05,-4315.89 0,-2078.68 -515.37,-3944.17 -1550.82,-5587.78 -904.17,-1435.49 -2085.42,-2519.9 -3540.13,-3254.66 -182.43,1011.29 -688.01,1887.21 -1519.28,2623.78 -62.01,55.02 -125.12,109.31 -188.59,163.24 1093.12,1716 1640.04,3838.48 1640.04,6367.06 0,2732.36 -614.01,4836.74 -1837.34,6307.7 -1223.32,1476.04 -2886.58,2211.52 -4995.21,2211.52 -921.21,0 -1586.36,-142.97 -2000.91,-428.91 -409.46,-286.3 -675.67,-689.52 -793.18,-1215.79 -122.95,-525.92 -184.24,-1486.17 -184.24,-2880.76z"/>
 </g>
</svg>
