<?xml version="1.0" encoding="UTF-8"?>
<!DOCTYPE svg PUBLIC "-//W3C//DTD SVG 1.1//EN" "http://www.w3.org/Graphics/SVG/1.1/DTD/svg11.dtd">
<!-- Creator: CorelDRAW -->
<svg xmlns="http://www.w3.org/2000/svg" xml:space="preserve" width="350mm" height="350mm" version="1.1" style="shape-rendering:geometricPrecision; text-rendering:geometricPrecision; image-rendering:optimizeQuality; fill-rule:evenodd; clip-rule:evenodd"
viewBox="0 0 35000 35000"
 xmlns:xlink="http://www.w3.org/1999/xlink"
 xmlns:xodm="http://www.corel.com/coreldraw/odm/2003">
 <defs>
  <style type="text/css">
   <![CDATA[
    .str0 {stroke:#2B2A29;stroke-width:20;stroke-miterlimit:22.9256}
    .str1 {stroke:#2B2A29;stroke-width:20;stroke-miterlimit:10.4334}
    .fil0 {fill:#7DB180}
    .fil1 {fill:#362F78}
   ]]>
  </style>
 </defs>
 <g id="Layer_x0020_1">
  <metadata id="CorelCorpID_0Corel-Layer"/>
  <path class="fil0 str0" d="M10223.6 17054.31c41.18,13.26 81.27,23.28 120.04,29.91 10.57,1.8 21.05,3.37 31.41,4.69 0.01,-3.2 0.01,-6.39 0.01,-9.55 0,-7.57 -0.04,-14.84 -0.11,-21.81 -31.16,-6.7 -59.78,-18.18 -85.78,-34.43 -44.66,-27.66 -79.96,-62.23 -105.88,-103.72 -8.49,-13.83 -17.43,-20.74 -26.57,-20.74 -12.65,0 -18.96,3.95 -18.96,11.99 0,1.7 0.43,5.79 1.31,12.28l18.3 149.86c2.17,14.82 8.49,22.3 18.96,22.3 10.23,0 18.72,-5.51 25.49,-16.51 5.88,-10.02 13.27,-18.07 21.78,-24.27z"/>
  <path class="fil0 str1" d="M10760.47 16937.51c1.42,-7.9 2.13,-16.1 2.13,-24.6 0,-37.68 -20.04,-71.97 -60.14,-102.73 -40.52,-30.9 -117.86,-56.87 -232.23,-77.89 -72.77,-13.41 -122.02,-27.52 -147.72,-42.33 -25.49,-14.96 -38.34,-31.61 -38.34,-50.1 0,-23.14 13.73,-42.47 41.18,-57.71 27.45,-15.39 61.86,-23.01 103.04,-23.01 42.49,0 84.97,9.88 127.02,29.5 42.05,19.61 72.33,41.77 90.62,66.32 10.69,14.39 17.87,22.86 21.79,25.54 3.7,2.68 10.03,3.95 18.53,3.95 11.54,0 17.43,-3.67 17.43,-11.15l-2.63 -13.68 -22.22 -113.6c-2.6,-12.13 -9.8,-18.2 -21.35,-18.2 -8.06,0 -15.25,4.37 -21.78,13.12 -5.45,7.48 -11.12,12.98 -16.55,16.51 -79.96,-18.63 -144.02,-27.94 -191.94,-27.94 -88.9,0 -159.04,15.1 -210.69,45.44 -51.63,30.34 -77.55,67.17 -77.55,110.49 0,24.69 10.45,49.25 31.59,73.38 20.91,23.99 49.02,43.04 84.1,56.72 34.84,13.83 88.45,28.37 160.57,43.47 63.29,13.14 110.05,26.91 140.11,41.11 5.12,2.42 9.76,4.85 13.91,7.29 12.24,7.26 21.87,15.22 28.88,23.88 9.35,11.54 14.04,24.32 14.04,38.35 0,24.55 -15.45,46.61 -46.18,65.9 -20.15,12.64 -44.45,21.14 -72.84,25.54l-1.13 32.3c47.75,-2.35 88.07,-9.57 121.03,-21.72 38.55,-14.09 71.91,-33.18 100.23,-57.15 1.75,-1.49 3.49,-2.99 5.2,-4.51 22.92,-20.35 36.86,-44.55 41.89,-72.49z"/>
  <path class="fil1 str0" d="M10487.82 17300.91c0,-51.24 0.42,-94.16 1.27,-128.74l2.77 -78.72 1.13 -32.32 1.06 -29.85c2.25,-59.14 3.96,-90.21 5.09,-93.03 0.98,-2.68 3.82,-5.36 8.48,-8.04 4.53,-2.69 18.39,-3.96 41.31,-3.96 17.48,0 33.91,1.69 49.3,5.04 -7.03,-8.66 -16.68,-16.63 -28.95,-23.89 -4.16,-2.44 -8.81,-4.87 -13.94,-7.29l-121.56 3.27c-13.29,0 -36.78,-1.55 -70.58,-4.65 -30.42,-3.11 -48.24,-4.67 -53.47,-4.67 -8.91,0 -13.3,3.68 -13.3,11.02 0,7.34 4.95,11.43 14.99,12.27 27.87,1.42 45.41,10.46 52.48,27.12 6.35,15.05 9.84,52.7 10.51,113.13 0.07,6.98 0.11,14.25 0.11,21.82 0,3.16 0,6.35 -0.01,9.56 -0.13,49.37 -1.28,103.2 -3.53,161.26 -2.41,61.97 -4.95,103.2 -7.78,123.94 -2.69,20.76 -9.34,35.02 -19.95,42.78 -10.61,7.77 -27.3,11.58 -50.07,11.58 -12.03,0 -17.97,3.95 -17.97,11.85 0,5.22 1.56,8.62 4.81,10.03 3.11,1.55 11.17,2.26 23.9,2.26l53.47 0.85 91.39 -0.43c87.7,1.7 137.63,2.54 149.8,2.54 42.29,0 79.07,-3.95 110.34,-11.86 31.4,-7.9 62.94,-24.42 94.77,-49.55 31.69,-25.13 56.02,-56.18 72.71,-93.03 16.83,-36.98 25.18,-76.66 25.18,-119.29 0,-57.45 -14.25,-109.01 -42.87,-154.44 -24.99,-39.68 -57.64,-69.65 -97.84,-89.96 -5.05,27.95 -19.02,52.16 -42,72.52 -1.71,1.52 -3.46,3.02 -5.21,4.51 30.21,47.43 45.33,106.1 45.33,175.99 0,75.52 -16.97,133.68 -50.78,174.34 -33.81,40.8 -79.79,61.13 -138.07,61.13 -25.46,0 -43.84,-3.96 -55.3,-11.86 -11.32,-7.91 -18.68,-19.06 -21.93,-33.6 -3.39,-14.54 -5.09,-41.08 -5.09,-79.63z"/>
 </g>
</svg>
